<svg id="UI_Elements" data-name="UI Elements" xmlns="http://www.w3.org/2000/svg" viewBox="0 0 28.67 30"><defs><style>.cls-1{fill:#f9a11b;}</style></defs><title>logo</title><path class="cls-1" d="M113.45,60.5a12.18,12.18,0,0,1-1.33-5.27C112.11,47.68,121,44.4,121,41c0-4.42-7.6-.23-11-0.23a3.85,3.85,0,0,1-3.88-4.14c0-3.77,6.18-6.18,6.18-6.18a5,5,0,0,0-1.19,2.81,2.3,2.3,0,0,0,2.44,2.35c3.88,0,10.29-4.2,13.75-4.2s7.49,2.47,7.49,6.58c0,8.62-11.83,9.64-17.81,14.26-2.87,2.22-3.52,8.2-3.52,8.2" transform="translate(-106.1 -30.5)"/></svg>